<svg width="136" height="136" viewBox="0 0 136 136" fill="none" xmlns="http://www.w3.org/2000/svg">
<g filter="url(#filter0_d_10_30)">
<rect x="27" y="19" width="82" height="82" rx="20" fill="white"/>
</g>
<path d="M86.0452 79.8188C86.0452 80.4111 85.5815 80.8896 85.0107 80.8896H50.2416C49.6708 80.8896 49.2071 80.4112 49.2071 79.8188V37.6879C49.2071 37.0968 49.6708 36.6171 50.2416 36.6171H85.0107C85.5815 36.6171 86.0452 37.0968 86.0452 37.6879V79.8188Z" fill="#327477"/>
<path d="M86.0452 82.7124C86.0452 83.3036 85.5815 83.7826 85.0107 83.7826H52.1998V44.0099H85.0101C85.5809 44.0099 86.0446 44.4896 86.0446 45.0807V82.7124H86.0452Z" fill="#0085FF"/>
<path d="M52.4099 43.4539H51.7805V83.7833H52.4099V43.4539Z" fill="#4699A1"/>
<path d="M51.8849 36.6171H50.2417C49.6709 36.6171 49.2072 37.0968 49.2072 37.6879V82.7126C49.2072 83.3038 49.6709 83.7828 50.2417 83.7828H51.8849V36.6171Z" fill="#2A646E"/>
<path d="M84.1805 43.9965H52.7416C51.6698 43.9965 50.8011 43.0966 50.8011 41.988V40.6692C50.8011 39.5604 51.6698 38.6618 52.7416 38.6618H82.24C83.3119 38.6618 84.1805 39.561 84.1805 40.6692V43.9965Z" fill="white"/>
<path d="M75.016 62.1846H63.3841C62.011 62.1846 60.8942 61.0287 60.8942 59.6088V53.3639C60.8942 51.9445 62.011 50.7888 63.3841 50.7888H75.016C76.3885 50.7888 77.5059 51.9447 77.5059 53.3639V59.6082C77.5053 61.0287 76.3885 62.1846 75.016 62.1846Z" fill="white"/>
<path d="M79.0076 68.6128C79.0076 69.0746 78.6601 69.4495 78.2308 69.4495H59.8213C59.3919 69.4495 59.0438 69.0746 59.0438 68.6128C59.0438 68.1497 59.3919 67.7754 59.8213 67.7754H78.2308C78.6606 67.7754 79.0076 68.1497 79.0076 68.6128Z" fill="white"/>
<path d="M79.0076 71.7183C79.0076 72.1801 78.6601 72.555 78.2308 72.555H59.8213C59.3919 72.555 59.0438 72.1801 59.0438 71.7183C59.0438 71.2565 59.3919 70.8816 59.8213 70.8816H78.2308C78.6606 70.8816 79.0076 71.2565 79.0076 71.7183Z" fill="white"/>
<path d="M75.7372 76.3383C75.7372 76.6482 75.5027 76.9007 75.2144 76.9007H62.8376C62.5486 76.9007 62.3147 76.6482 62.3147 76.3383C62.3147 76.0278 62.5492 75.7753 62.8376 75.7753H75.2144C75.5033 75.7753 75.7372 76.0278 75.7372 76.3383Z" fill="white"/>
<defs>
<filter id="filter0_d_10_30" x="0" y="0" width="136" height="136" filterUnits="userSpaceOnUse" color-interpolation-filters="sRGB">
<feFlood flood-opacity="0" result="BackgroundImageFix"/>
<feColorMatrix in="SourceAlpha" type="matrix" values="0 0 0 0 0 0 0 0 0 0 0 0 0 0 0 0 0 0 127 0" result="hardAlpha"/>
<feMorphology radius="2" operator="dilate" in="SourceAlpha" result="effect1_dropShadow_10_30"/>
<feOffset dy="8"/>
<feGaussianBlur stdDeviation="12.5"/>
<feComposite in2="hardAlpha" operator="out"/>
<feColorMatrix type="matrix" values="0 0 0 0 0 0 0 0 0 0 0 0 0 0 0 0 0 0 0.1 0"/>
<feBlend mode="normal" in2="BackgroundImageFix" result="effect1_dropShadow_10_30"/>
<feBlend mode="normal" in="SourceGraphic" in2="effect1_dropShadow_10_30" result="shape"/>
</filter>
</defs>
</svg>
