<?xml version="1.0" standalone="no"?>
<!DOCTYPE svg PUBLIC "-//W3C//DTD SVG 20010904//EN"
 "http://www.w3.org/TR/2001/REC-SVG-20010904/DTD/svg10.dtd">
<svg version="1.0" xmlns="http://www.w3.org/2000/svg"
 width="604.000000pt" height="604.000000pt" viewBox="0 0 604.000000 604.000000"
 preserveAspectRatio="xMidYMid meet">
<metadata>
Created by potrace 1.14, written by Peter Selinger 2001-2017
</metadata>
<g transform="translate(0.000000,604.000000) scale(0.100000,-0.100000)"
fill="#000000" stroke="none">
<path d="M3010 5890 c-12 -8 -15 -40 -15 -182 l-1 -173 -309 -3 c-206 -2 -313
-6 -322 -13 -17 -15 -17 -54 1 -69 21 -17 1331 -17 1352 1 18 15 18 53 0 69
-11 8 -98 11 -320 11 -168 0 -306 3 -307 7 -1 4 -2 83 -3 175 -1 137 -4 169
-16 177 -19 12 -41 12 -60 0z"/>
<path d="M1185 5148 c-83 -24 -117 -43 -173 -93 -43 -38 -122 -145 -107 -145
2 0 -3 -17 -13 -37 -15 -35 -16 -132 -18 -1053 0 -570 3 -1023 8 -1032 5 -10
15 -18 23 -18 12 0 17 -30 16 -107 -1 -10 -1 -57 -2 -105 -1 -47 2 -91 5 -96
3 -5 -6 -27 -20 -48 -29 -42 -36 -88 -22 -144 5 -19 10 -43 13 -53 9 -38 60
-118 104 -162 55 -55 147 -103 216 -112 63 -9 3594 -8 3655 0 133 19 265 135
318 280 23 62 27 2530 5 2621 -21 85 -46 130 -111 194 -71 71 -131 103 -223
118 -24 3 -848 7 -1831 8 -1641 1 -1792 0 -1843 -16z"/>
<path d="M1998 1653 c-25 -6 -34 -51 -15 -70 13 -13 43 -16 171 -16 86 0 156
-2 156 -3 0 -2 -17 -36 -37 -76 -21 -40 -36 -76 -35 -80 1 -5 -3 -8 -8 -8 -5
0 -10 -4 -10 -10 0 -12 -298 -612 -310 -624 -5 -5 -33 -11 -62 -12 -77 -3
-303 -15 -376 -19 -58 -4 -95 -7 -267 -20 -105 -8 -189 -15 -230 -20 -22 -2
-67 -7 -99 -10 -33 -3 -73 -8 -90 -10 -17 -2 -53 -7 -81 -10 -27 -3 -63 -8
-80 -10 -16 -3 -46 -7 -65 -10 -99 -13 -341 -62 -380 -77 -14 -5 -32 -11 -41
-13 -43 -9 -115 -53 -129 -78 -15 -28 -14 -29 18 -57 51 -43 236 -99 412 -126
19 -2 49 -8 65 -11 17 -3 44 -7 60 -9 17 -2 46 -5 65 -8 19 -3 58 -9 85 -12
28 -3 66 -7 85 -10 73 -10 97 -13 175 -20 44 -3 94 -8 110 -9 17 -2 68 -6 115
-9 47 -4 101 -9 120 -11 19 -2 87 -6 150 -10 63 -3 153 -8 200 -11 114 -6 257
-12 480 -21 251 -10 1486 -10 1740 0 425 17 592 25 675 32 28 3 86 7 130 10
44 2 105 7 135 9 30 3 90 8 132 11 42 3 91 7 110 9 18 3 60 8 93 11 33 3 74 8
90 10 17 2 53 7 80 10 28 3 79 10 115 16 36 6 83 13 105 16 34 4 115 20 205
39 213 44 334 125 259 173 -46 28 -85 48 -109 55 -71 20 -209 55 -240 60 -19
3 -62 10 -95 16 -33 6 -78 13 -100 15 -22 3 -49 7 -60 10 -11 2 -49 7 -85 10
-36 4 -76 9 -90 11 -14 3 -43 7 -65 9 -96 9 -164 15 -220 20 -33 3 -82 7 -110
10 -27 2 -88 7 -135 10 -47 3 -107 8 -135 10 -50 4 -304 16 -380 19 l-40 1
-201 400 c-111 220 -202 402 -203 405 -1 3 69 6 154 7 108 0 159 4 170 13 21
17 19 57 -3 69 -18 10 -2035 13 -2074 4z m997 -481 l0 -392 -150 -1 c-163 0
-495 -7 -697 -13 -126 -4 -127 -3 -118 18 16 42 275 551 283 557 5 3 7 8 6 10
-2 2 21 52 50 110 l52 105 287 0 286 -1 1 -393z m842 38 c98 -195 183 -358
188 -362 6 -4 7 -8 3 -8 -4 0 1 -15 12 -32 11 -18 20 -36 20 -39 0 -3 -51 -5
-112 -3 -62 1 -279 5 -483 9 -203 4 -372 9 -375 11 -8 8 -5 769 3 775 4 3 133
5 286 5 l279 0 179 -356z"/>
</g>
</svg>
